<mxfile host="65bd71144e">
    <diagram id="dtUlN4bX1Xot7oudCGlM" name="Page-1">
        <mxGraphModel dx="911" dy="639" grid="1" gridSize="10" guides="1" tooltips="1" connect="1" arrows="1" fold="1" page="1" pageScale="1" pageWidth="850" pageHeight="1100" math="0" shadow="0">
            <root>
                <mxCell id="0"/>
                <mxCell id="1" parent="0"/>
                <mxCell id="5" style="edgeStyle=none;html=1;" edge="1" parent="1" source="4">
                    <mxGeometry relative="1" as="geometry">
                        <mxPoint x="320" y="140" as="targetPoint"/>
                    </mxGeometry>
                </mxCell>
                <mxCell id="17" style="edgeStyle=none;html=1;exitX=1;exitY=1;exitDx=0;exitDy=0;exitPerimeter=0;" edge="1" parent="1" source="4" target="15">
                    <mxGeometry relative="1" as="geometry"/>
                </mxCell>
                <mxCell id="4" value="Actor" style="shape=umlActor;verticalLabelPosition=bottom;verticalAlign=top;html=1;outlineConnect=0;gradientColor=#ffffff;fillColor=none;" vertex="1" parent="1">
                    <mxGeometry x="120" y="230" width="30" height="60" as="geometry"/>
                </mxCell>
                <mxCell id="7" value="" style="ellipse;whiteSpace=wrap;html=1;fillColor=none;gradientColor=#ffffff;" vertex="1" parent="1">
                    <mxGeometry x="320" y="100" width="250" height="90" as="geometry"/>
                </mxCell>
                <mxCell id="8" value="Execution of Program" style="text;html=1;strokeColor=none;fillColor=none;align=center;verticalAlign=middle;whiteSpace=wrap;rounded=0;" vertex="1" parent="1">
                    <mxGeometry x="350" y="130" width="180" height="30" as="geometry"/>
                </mxCell>
                <mxCell id="9" value="" style="shape=singleArrow;direction=south;whiteSpace=wrap;html=1;fillColor=none;gradientColor=#ffffff;" vertex="1" parent="1">
                    <mxGeometry x="427.5" y="190" width="25" height="70" as="geometry"/>
                </mxCell>
                <mxCell id="11" value="" style="ellipse;whiteSpace=wrap;html=1;fillColor=none;gradientColor=#ffffff;" vertex="1" parent="1">
                    <mxGeometry x="320" y="260" width="250" height="80" as="geometry"/>
                </mxCell>
                <mxCell id="12" value="Processing of Algorithm" style="text;html=1;strokeColor=none;fillColor=none;align=center;verticalAlign=middle;whiteSpace=wrap;rounded=0;" vertex="1" parent="1">
                    <mxGeometry x="355" y="280" width="170" height="40" as="geometry"/>
                </mxCell>
                <mxCell id="14" value="" style="shape=singleArrow;direction=north;whiteSpace=wrap;html=1;fillColor=none;gradientColor=#ffffff;" vertex="1" parent="1">
                    <mxGeometry x="425" y="340" width="30" height="80" as="geometry"/>
                </mxCell>
                <mxCell id="15" value="" style="ellipse;whiteSpace=wrap;html=1;fillColor=none;gradientColor=#ffffff;" vertex="1" parent="1">
                    <mxGeometry x="320" y="420" width="250" height="110" as="geometry"/>
                </mxCell>
                <mxCell id="16" value="OUTPUT" style="text;html=1;strokeColor=none;fillColor=none;align=center;verticalAlign=middle;whiteSpace=wrap;rounded=0;" vertex="1" parent="1">
                    <mxGeometry x="410" y="460" width="60" height="30" as="geometry"/>
                </mxCell>
            </root>
        </mxGraphModel>
    </diagram>
</mxfile>